<?xml version="1.0" encoding="utf-8"?>
<!-- Generator: Adobe Illustrator 15.1.0, SVG Export Plug-In . SVG Version: 6.00 Build 0)  -->
<svg version="1.2" baseProfile="tiny" id="Layer_1" xmlns="http://www.w3.org/2000/svg" xmlns:xlink="http://www.w3.org/1999/xlink"
	 x="0px" y="0px" width="256px" height="256px" viewBox="0 0 256 256" xml:space="preserve">
<path fill-rule="evenodd" fill="rgb(145, 12, 12)" d="M231.234,27.786c-40.505,18.979-73.417,43.514-100.926,72.496
	c-26.587,28.01-59.495,54.703-106.611,62.546c-13.87-12.225-16.826-70.65,4.265-76.762c17.539-5.081,32.26,13.785,44.066,21.323
	c6.737-3.215,12.385-7.516,17.058-12.793c-16.477-9.252-33.075-25.487-56.86-22.744C20.099,89.087,2.012,115.182,6.64,145.769
	c2.497,16.499,17.676,40.145,28.429,44.066c19.212,7.005,45.889-11.641,59.702-21.322c39.956-28.007,77.919-77.694,129.355-83.867
	c11.84,28.758,21.545,81.955,4.265,108.032c-22.513-6.865-38.682-20.073-56.86-31.273c-6.94,3.01-14.147,5.753-18.479,11.373
	c27.588,19.796,50.33,44.436,86.711,55.437C258.178,169.406,249.919,81.606,231.234,27.786z"/>
</svg>
